# xmcd CD database file
#
# Track frame offsets:
#	182
#	14807
#	30475
#	48412
#	60240
#	77547
#	89105
#	104760
#	119320
#	132107
#	150405
#	163740
#
# Disc length: 2372 seconds
#
# Revision: 0
# Processed by: cddbd v1.4PL0 Copyright (c) Steve Scherf et al.
# Submitted via: CDex 1.50Beta7
#
DISCID=9609420c
DTITLE=Bjøro Håland - Just For You
DYEAR=1985
DGENRE=Country
TTITLE0=We're making future memories
TTITLE1=If you're gonna do me wrong
TTITLE2=Food on the table
TTITLE3=I'll be faithful to you
TTITLE4=It's a nice old house
TTITLE5=After a while
TTITLE6=Welcome to my world
TTITLE7=I can see my future in your past
TTITLE8=Love always /letter to home)
TTITLE9=My shining woman
TTITLE10=Way down deep
TTITLE11=When you are gone
EXTD=YEAR: 1985
EXTT0=
EXTT1=
EXTT2=
EXTT3=
EXTT4=
EXTT5=
EXTT6=
EXTT7=
EXTT8=
EXTT9=
EXTT10=
EXTT11=
PLAYORDER=
